<?xml version="1.0" encoding="iso-8859-1"?>
<!-- Generator: Adobe Illustrator 19.0.0, SVG Export Plug-In . SVG Version: 6.00 Build 0)  -->
<svg version="1.1" id="Capa_1" xmlns="http://www.w3.org/2000/svg" xmlns:xlink="http://www.w3.org/1999/xlink" x="0px" y="0px"
	 viewBox="0 0 512 512" style="enable-background:new 0 0 512 512;" xml:space="preserve">
<circle style="fill:#7CDA4D;" cx="256" cy="256" r="256"/>
<path style="fill:#42B653;" d="M508.221,299.989L325.566,117.333L117.333,394.667l116.355,116.355
	C241.043,511.656,248.481,512,256,512C382.384,512,487.365,420.412,508.221,299.989z"/>
<polygon style="fill:#D6E6FD;" points="325.566,117.334 221.45,117.334 210.608,256.044 221.45,394.667 325.566,394.667 "/>
<rect x="117.33" y="117.33" style="fill:#F4F4FF;" width="104.12" height="277.33"/>
<g>
	<rect x="143.25" y="351.99" style="fill:#A1B8D8;" width="41.996" height="16.25"/>
	<rect x="143.25" y="317.44" style="fill:#A1B8D8;" width="59.27" height="16.25"/>
</g>
<g>
	<polygon style="fill:#6C819F;" points="256.828,143.759 221.45,143.759 216.029,151.884 221.45,160.009 256.828,160.009 	"/>
	<polygon style="fill:#6C819F;" points="299.653,178.31 221.45,178.31 216.029,186.435 221.45,194.56 299.653,194.56 	"/>
	<polygon style="fill:#6C819F;" points="299.653,212.86 221.45,212.86 216.029,220.985 221.45,229.11 299.653,229.11 	"/>
	<polygon style="fill:#6C819F;" points="299.653,247.41 221.45,247.41 216.029,255.535 221.45,263.66 299.653,263.66 	"/>
</g>
<g>
	<rect x="143.25" y="212.86" style="fill:#A1B8D8;" width="78.2" height="16.25"/>
	<rect x="143.25" y="247.41" style="fill:#A1B8D8;" width="78.2" height="16.25"/>
	<rect x="186.07" y="143.76" style="fill:#A1B8D8;" width="35.38" height="16.25"/>
	<rect x="143.25" y="178.31" style="fill:#A1B8D8;" width="78.2" height="16.25"/>
</g>
<polygon style="fill:#467BCA;" points="264.417,360.195 288.804,360.132 394.667,254.27 382.505,242.108 323.429,288.771 "/>
<polygon style="fill:#68B7EA;" points="370.217,229.82 264.354,335.683 264.417,360.195 382.505,242.108 "/>
<g>
</g>
<g>
</g>
<g>
</g>
<g>
</g>
<g>
</g>
<g>
</g>
<g>
</g>
<g>
</g>
<g>
</g>
<g>
</g>
<g>
</g>
<g>
</g>
<g>
</g>
<g>
</g>
<g>
</g>
</svg>
